<?xml version="1.0" encoding="UTF-8" standalone="no"?>
<!-- Created with Inkscape (http://www.inkscape.org/) -->

<svg
   width="800px"
   height="800px"
   viewBox="0 0 800 800"
   version="1.1"
   id="SVGRoot"
   sodipodi:docname="logograffe.svg"
   inkscape:version="1.1.1 (3bf5ae0d25, 2021-09-20)"
   xmlns:inkscape="http://www.inkscape.org/namespaces/inkscape"
   xmlns:sodipodi="http://sodipodi.sourceforge.net/DTD/sodipodi-0.dtd"
   xmlns="http://www.w3.org/2000/svg"
   xmlns:svg="http://www.w3.org/2000/svg">
  <sodipodi:namedview
     id="namedview2137"
     pagecolor="#ffffff"
     bordercolor="#666666"
     borderopacity="1.0"
     inkscape:pageshadow="2"
     inkscape:pageopacity="0.0"
     inkscape:pagecheckerboard="0"
     inkscape:document-units="px"
     showgrid="false"
     inkscape:zoom="0.64052329"
     inkscape:cx="138.16828"
     inkscape:cy="492.56601"
     inkscape:window-width="1920"
     inkscape:window-height="1017"
     inkscape:window-x="-8"
     inkscape:window-y="-8"
     inkscape:window-maximized="1"
     inkscape:current-layer="layer1" />
  <defs
     id="defs2132" />
  <g
     inkscape:label="Livello 1"
     inkscape:groupmode="layer"
     id="layer1">
    <g
       aria-label="{"
       id="text3836"
       style="font-size:74.6667px;font-family:MingLiU-ExtB;-inkscape-font-specification:MingLiU-ExtB;font-variant-ligatures:none;letter-spacing:0px;word-spacing:0px;fill:#42b983;fill-opacity:1"
       transform="matrix(10.886879,0,0,10.077276,-2930.6936,-2063.431)">
      <path
         d="m 270.32338,245.76343 v -4.22917 c 3.79167,-0.24305 5.6875,-2.86805 5.6875,-7.875 v -10.64584 c 0,-7.53473 3.7309,-11.3507 11.19271,-11.44792 v 4.66667 c -3.86459,0.0972 -5.79688,2.50347 -5.79688,7.21875 v 10.6823 c 0,5.10417 -3.18899,10.38626 -6.83482,11.55293 z"
         style="-inkscape-font-specification:'Microsoft New Tai Lue';fill:#42b983;fill-opacity:1"
         id="path27213"
         sodipodi:nodetypes="ccssccsscc" />
    </g>
    <g
       aria-label="{"
       id="text3836-5"
       style="font-size:74.6667px;font-family:MingLiU-ExtB;-inkscape-font-specification:MingLiU-ExtB;font-variant-ligatures:none;letter-spacing:0px;word-spacing:0px;fill:#333333"
       transform="matrix(10.886879,0,0,-10.087968,-2930.6936,2849.7849)">
      <path
         d="m 270.32338,245.76343 v -4.22917 c 3.79167,-0.24305 5.6875,-2.86805 5.6875,-7.875 v -10.64584 c 0,-7.53473 3.7309,-11.3507 11.19271,-11.44792 v 4.66667 c -3.86459,0.0972 -5.79688,2.50347 -5.79688,7.21875 v 10.6823 c 0,5.10417 -3.18899,10.38626 -6.83482,11.55293 z"
         style="-inkscape-font-specification:'Microsoft New Tai Lue';fill:#333333"
         id="path27213-4"
         sodipodi:nodetypes="ccssccsscc" />
    </g>
    <g
       aria-label="{"
       id="text3836-4"
       style="font-size:74.6667px;font-family:MingLiU-ExtB;-inkscape-font-specification:MingLiU-ExtB;font-variant-ligatures:none;letter-spacing:0px;word-spacing:0px;fill:#333333"
       transform="matrix(-10.954781,0,0,10.077276,3754.3096,-2063.431)">
      <path
         d="m 270.32338,245.76343 v -4.22917 c 3.79167,-0.24305 5.6875,-2.86805 5.6875,-7.875 v -10.64584 c 0,-7.53473 3.7309,-11.3507 11.19271,-11.44792 v 4.66667 c -3.86459,0.0972 -5.79688,2.50347 -5.79688,7.21875 v 10.6823 c 0,5.10417 -3.18899,10.38626 -6.83482,11.55293 z"
         style="-inkscape-font-specification:'Microsoft New Tai Lue';fill:#333333"
         id="path27213-9"
         sodipodi:nodetypes="ccssccsscc" />
    </g>
    <g
       aria-label="{"
       id="text3836-5-9"
       style="font-size:74.6667px;font-family:MingLiU-ExtB;-inkscape-font-specification:MingLiU-ExtB;font-variant-ligatures:none;letter-spacing:0px;word-spacing:0px;fill:#42b983;fill-opacity:1"
       transform="matrix(-10.954781,0,0,-10.087968,3754.3096,2849.7849)">
      <path
         d="m 270.32338,245.76343 v -4.22917 c 3.79167,-0.24305 5.6875,-2.86805 5.6875,-7.875 v -10.64584 c 0,-7.53473 3.7309,-11.3507 11.19271,-11.44792 v 4.66667 c -3.86459,0.0972 -5.79688,2.50347 -5.79688,7.21875 v 10.6823 c 0,5.10417 -3.18899,10.38626 -6.83482,11.55293 z"
         style="-inkscape-font-specification:'Microsoft New Tai Lue';fill:#42b983;fill-opacity:1"
         id="path27213-4-4"
         sodipodi:nodetypes="ccssccsscc" />
    </g>
    <g
       aria-label="D"
       transform="matrix(9.1636604,0,0,7.8085362,-2055.5784,-1905.8633)"
       id="text30566"
       style="font-size:74.6667px;font-family:MingLiU-ExtB;-inkscape-font-specification:MingLiU-ExtB;font-variant-ligatures:none;letter-spacing:0px;word-spacing:0px;white-space:pre;fill:#333333">
      <path
         d="m 248.84381,320.05081 v -52.28127 h 14.43751 q 27.63543,0 27.63543,25.48438 0,12.10418 -7.69272,19.46876 -7.65625,7.32813 -20.52605,7.32813 z m 6.125,-46.7396 v 41.19793 h 7.80209 q 10.28125,0 16.00522,-5.50521 5.72396,-5.50521 5.72396,-15.60417 0,-20.08855 -21.3646,-20.08855 z"
         style="-inkscape-font-specification:'Microsoft PhagsPa'"
         id="path37113" />
    </g>
    <rect
       style="fill:#ffffff;fill-opacity:1"
       id="rect36986"
       width="74.938728"
       height="524.57111"
       x="-242.04065"
       y="140.51012" />
    <path
       style="fill:none;stroke:#000000;stroke-width:1px;stroke-linecap:butt;stroke-linejoin:miter;stroke-opacity:1"
       d="m 349.03039,184.22437 v 44.49487"
       id="path37186" />
    <path
       style="fill:#42b983;fill-opacity:1"
       d="M 280.86919,228.29718 V 549.9927 l 76.74793,-0.44203 -1.56122,43.71425 -131.31413,1.2e-4 V 185.02485 l 124.28862,-0.80048 v 44.49487 0"
       id="path37188" />
    <rect
       style="fill:#ffffff;fill-opacity:1;stroke-width:1.04484"
       id="rect37448"
       width="55.765305"
       height="469.14764"
       x="343.39474"
       y="157.70343" />
  </g>
</svg>
